# xmcd
#
# Track frame offsets:
#	150
#	19800
#	37613
#	54788
#	72526
#	87976
#	107626
#	131176
#	151351
#	171451
#	182251
#	196501
#	216864
#	238764
#
# Disc length: 3443 seconds
#
# Revision: 2
# Processed by: cddbd v1.5.2PL0 Copyright (c) Steve Scherf et al.
# Submitted via: EasyCDDAExtractor 10.0.3.1
#
DISCID=b50d710e
DTITLE=Лариса Долина - Обожжённая душа
DYEAR=2005
DGENRE=Pop
TTITLE0=Цветы под снегом
TTITLE1=Танцы на китайской стене
TTITLE2=Обожжённая душа
TTITLE3=Репка
TTITLE4=Параллельные
TTITLE5=Просто
TTITLE6=Про любовь
TTITLE7=Полоса потерь
TTITLE8=Ни ты, ни я
TTITLE9=Ах, эти ночи
TTITLE10=Двести сорок раз
TTITLE11=Путешествующий снег
TTITLE12=Романс
TTITLE13=Цветы под снегом (бонус-трек)
EXTD=
EXTT0=
EXTT1=
EXTT2=
EXTT3=
EXTT4=
EXTT5=
EXTT6=
EXTT7=
EXTT8=
EXTT9=
EXTT10=
EXTT11=
EXTT12=
EXTT13=
PLAYORDER=
